%TF.GenerationSoftware,KiCad,Pcbnew,9.0.3-9.0.3-0~ubuntu22.04.1*%
%TF.CreationDate,2025-08-06T09:14:09+07:00*%
%TF.ProjectId,COUBLOMB_COUNTER,434f5542-4c4f-44d4-925f-434f554e5445,rev?*%
%TF.SameCoordinates,Original*%
%TF.FileFunction,Paste,Top*%
%TF.FilePolarity,Positive*%
%FSLAX46Y46*%
G04 Gerber Fmt 4.6, Leading zero omitted, Abs format (unit mm)*
G04 Created by KiCad (PCBNEW 9.0.3-9.0.3-0~ubuntu22.04.1) date 2025-08-06 09:14:09*
%MOMM*%
%LPD*%
G01*
G04 APERTURE LIST*
G04 Aperture macros list*
%AMRoundRect*
0 Rectangle with rounded corners*
0 $1 Rounding radius*
0 $2 $3 $4 $5 $6 $7 $8 $9 X,Y pos of 4 corners*
0 Add a 4 corners polygon primitive as box body*
4,1,4,$2,$3,$4,$5,$6,$7,$8,$9,$2,$3,0*
0 Add four circle primitives for the rounded corners*
1,1,$1+$1,$2,$3*
1,1,$1+$1,$4,$5*
1,1,$1+$1,$6,$7*
1,1,$1+$1,$8,$9*
0 Add four rect primitives between the rounded corners*
20,1,$1+$1,$2,$3,$4,$5,0*
20,1,$1+$1,$4,$5,$6,$7,0*
20,1,$1+$1,$6,$7,$8,$9,0*
20,1,$1+$1,$8,$9,$2,$3,0*%
G04 Aperture macros list end*
%ADD10RoundRect,0.250000X-0.375000X-0.625000X0.375000X-0.625000X0.375000X0.625000X-0.375000X0.625000X0*%
%ADD11RoundRect,0.225000X-0.225000X-0.250000X0.225000X-0.250000X0.225000X0.250000X-0.225000X0.250000X0*%
%ADD12R,0.900000X0.800000*%
%ADD13RoundRect,0.225000X0.250000X-0.225000X0.250000X0.225000X-0.250000X0.225000X-0.250000X-0.225000X0*%
%ADD14RoundRect,0.100000X-0.637500X-0.100000X0.637500X-0.100000X0.637500X0.100000X-0.637500X0.100000X0*%
%ADD15RoundRect,0.250000X-1.425000X0.362500X-1.425000X-0.362500X1.425000X-0.362500X1.425000X0.362500X0*%
G04 APERTURE END LIST*
D10*
%TO.C,R4*%
X144610000Y-100820000D03*
X147410000Y-100820000D03*
%TD*%
D11*
%TO.C,C2*%
X138800000Y-99240000D03*
X140350000Y-99240000D03*
%TD*%
D12*
%TO.C,R1*%
X138360000Y-95460000D03*
X140160000Y-95460000D03*
%TD*%
%TO.C,R2*%
X143570000Y-92370000D03*
X145370000Y-92370000D03*
%TD*%
%TO.C,R6*%
X157592600Y-98044000D03*
X155792600Y-98044000D03*
%TD*%
D13*
%TO.C,C4*%
X153746200Y-99708000D03*
X153746200Y-98158000D03*
%TD*%
D14*
%TO.C,U1*%
X143237500Y-94610000D03*
X143237500Y-95260000D03*
X143237500Y-95910000D03*
X143237500Y-96560000D03*
X143237500Y-97210000D03*
X143237500Y-97860000D03*
X143237500Y-98510000D03*
X148962500Y-98510000D03*
X148962500Y-97860000D03*
X148962500Y-97210000D03*
X148962500Y-96560000D03*
X148962500Y-95910000D03*
X148962500Y-95260000D03*
X148962500Y-94610000D03*
%TD*%
D13*
%TO.C,C5*%
X151830000Y-98305000D03*
X151830000Y-96755000D03*
%TD*%
D11*
%TO.C,C1*%
X138800000Y-100800000D03*
X140350000Y-100800000D03*
%TD*%
D12*
%TO.C,R8*%
X138410000Y-97350000D03*
X140210000Y-97350000D03*
%TD*%
D15*
%TO.C,R7*%
X161290000Y-94437500D03*
X161290000Y-100362500D03*
%TD*%
D12*
%TO.C,R5*%
X157580000Y-96560000D03*
X155780000Y-96560000D03*
%TD*%
%TO.C,R3*%
X149140000Y-92370000D03*
X147340000Y-92370000D03*
%TD*%
D13*
%TO.C,C3*%
X153750000Y-96525000D03*
X153750000Y-94975000D03*
%TD*%
M02*
